<?xml version="1.0" standalone="no"?>
<!DOCTYPE svg PUBLIC "-//W3C//DTD SVG 20010904//EN"
 "http://www.w3.org/TR/2001/REC-SVG-20010904/DTD/svg10.dtd">
<svg version="1.0" xmlns="http://www.w3.org/2000/svg"
 width="300.000000pt" height="300.000000pt" viewBox="0 0 300.000000 300.000000"
 preserveAspectRatio="xMidYMid meet">
<metadata>
Created by potrace 1.13, written by Peter Selinger 2001-2015
</metadata>
<g transform="translate(0.000000,300.000000) scale(0.100000,-0.100000)"
fill="#FF0000" stroke="none">
<path d="M579 2971 c-86 -55 -144 -135 -183 -253 -51 -151 -41 -313 29 -454
38 -77 124 -173 174 -194 l29 -12 -55 -81 c-66 -96 -105 -178 -128 -268 -23
-86 -16 -222 14 -301 28 -72 94 -142 149 -159 37 -11 49 -9 137 21 108 38 182
82 205 123 13 24 13 30 0 55 -9 15 -37 38 -62 52 -103 56 -133 113 -126 237 7
118 47 193 168 313 187 186 391 270 619 257 231 -13 415 -119 536 -307 155
-239 204 -541 149 -920 -41 -278 -116 -483 -240 -657 -128 -179 -296 -228
-520 -153 -76 25 -284 113 -284 120 0 3 28 23 63 45 34 22 103 80 153 130 81
80 98 102 142 195 67 137 94 247 137 550 47 327 75 411 180 535 30 35 55 67
55 70 0 3 -16 27 -35 54 l-35 48 -48 -8 c-109 -21 -209 -70 -314 -155 -89 -73
-151 -151 -203 -254 -67 -134 -90 -224 -140 -546 -61 -393 -77 -447 -162 -543
l-39 -44 -74 18 c-193 47 -418 7 -535 -97 -94 -82 -109 -213 -33 -285 100 -94
232 -92 434 6 l101 50 73 -30 c157 -66 392 -106 550 -94 247 19 488 103 690
238 97 66 265 229 346 337 117 157 206 353 243 538 66 325 11 660 -147 892
l-31 44 54 56 c105 111 150 241 142 415 -5 128 -31 213 -94 303 -31 46 -149
149 -159 140 -1 -2 9 -36 22 -76 52 -153 42 -315 -28 -453 -39 -79 -125 -179
-153 -179 -8 0 -43 16 -78 35 -85 47 -210 92 -327 118 -79 17 -130 21 -300 21
-225 1 -298 -8 -448 -56 -108 -34 -199 -74 -283 -123 l-61 -35 -50 27 c-96 53
-183 178 -214 309 -24 102 -15 257 19 347 14 37 25 67 24 67 -2 0 -23 -13 -48
-29z"/>
</g>
</svg>
